<svg width="103" height="103" viewBox="0 0 103 103" fill="none" xmlns="http://www.w3.org/2000/svg">
<circle cx="51.5" cy="51.5" r="51.5" fill="#128F80"/>
<path d="M60.4688 65.4531H41.9766L38.4609 76H27.2461L46.3008 24.8125H56.0742L75.2344 76H64.0195L60.4688 65.4531ZM44.8242 56.9102H57.6211L51.1875 37.75L44.8242 56.9102Z" fill="white"/>
<mask id="mask0" mask-type="alpha" maskUnits="userSpaceOnUse" x="27" y="24" width="49" height="52">
<path d="M60.4688 65.4531H41.9766L38.4609 76H27.2461L46.3008 24.8125H56.0742L75.2344 76H64.0195L60.4688 65.4531ZM44.8242 56.9102H57.6211L51.1875 37.75L44.8242 56.9102Z" fill="white"/>
</mask>
<g mask="url(#mask0)">
<path d="M72.0518 126.353C72.9617 113.937 52.9444 40.0183 12 -10L-3 135L72.0518 126.353Z" fill="black"/>
</g>
</svg>
